<svg xmlns="http://www.w3.org/2000/svg" xmlns:xlink="http://www.w3.org/1999/xlink" width="1080" zoomAndPan="magnify" viewBox="0 0 810 809.999993" height="1080" preserveAspectRatio="xMidYMid meet" version="1.0"><defs><g/></defs><g fill="#000000" fill-opacity="1"><g transform="translate(408.964293, 665.620419)"><g><path d="M -23.921875 44.078125 L -22.546875 29.1875 L -48.625 26.796875 L -47.671875 16.34375 L -21.59375 18.734375 L -19.71875 -1.796875 L -6.671875 -0.609375 L -11.828125 55.71875 L -54.40625 51.8125 L -53.453125 41.359375 Z M -23.921875 44.078125 "/></g></g></g><g fill="#000000" fill-opacity="1"><g transform="translate(362.021535, 661.003383)"><g><path d="M -26.734375 32.0625 C -28.722656 33.726562 -31.085938 34.757812 -33.828125 35.15625 C -36.566406 35.5625 -39.554688 35.347656 -42.796875 34.515625 L -39.890625 23.25 C -38.554688 23.695312 -37.660156 23.984375 -37.203125 24.109375 C -33.703125 25.015625 -30.707031 24.742188 -28.21875 23.296875 C -25.726562 21.859375 -23.976562 19.179688 -22.96875 15.265625 L -17.828125 -4.609375 L -5.625 -1.453125 L -16.5 40.640625 L -28.171875 37.625 Z M -26.734375 32.0625 "/></g></g></g><g fill="#000000" fill-opacity="1"><g transform="translate(332.287496, 654.464161)"><g><path d="M -23.96875 -11.3125 C -19.78125 -9.457031 -16.410156 -6.921875 -13.859375 -3.703125 C -11.316406 -0.484375 -9.796875 3.085938 -9.296875 7.015625 C -8.804688 10.953125 -9.429688 14.890625 -11.171875 18.828125 C -12.921875 22.765625 -15.414062 25.875 -18.65625 28.15625 C -21.90625 30.4375 -25.578125 31.710938 -29.671875 31.984375 C -33.765625 32.253906 -37.90625 31.460938 -42.09375 29.609375 C -46.28125 27.753906 -49.640625 25.222656 -52.171875 22.015625 C -54.703125 18.816406 -56.210938 15.242188 -56.703125 11.296875 C -57.203125 7.359375 -56.578125 3.421875 -54.828125 -0.515625 C -53.085938 -4.453125 -50.59375 -7.554688 -47.34375 -9.828125 C -44.101562 -12.097656 -40.441406 -13.375 -36.359375 -13.65625 C -32.285156 -13.945312 -28.15625 -13.164062 -23.96875 -11.3125 Z M -28.15625 -1.859375 C -31.113281 -3.171875 -33.984375 -3.25 -36.765625 -2.09375 C -39.546875 -0.9375 -41.675781 1.3125 -43.15625 4.65625 C -44.644531 8.007812 -44.878906 11.101562 -43.859375 13.9375 C -42.847656 16.769531 -40.863281 18.84375 -37.90625 20.15625 C -34.945312 21.46875 -32.066406 21.550781 -29.265625 20.40625 C -26.472656 19.257812 -24.332031 17.007812 -22.84375 13.65625 C -21.363281 10.3125 -21.140625 7.21875 -22.171875 4.375 C -23.203125 1.53125 -25.195312 -0.546875 -28.15625 -1.859375 Z M -28.15625 -1.859375 "/></g></g></g><g fill="#000000" fill-opacity="1"><g transform="translate(288.596418, 635.886815)"><g><path d="M -51.890625 17.171875 C -56.265625 14.035156 -58.859375 10.191406 -59.671875 5.640625 C -60.492188 1.085938 -59.0625 -3.773438 -55.375 -8.953125 L -40.90625 -29.203125 L -30.640625 -21.875 L -43.984375 -3.203125 C -45.984375 -0.390625 -46.863281 2.140625 -46.625 4.390625 C -46.382812 6.640625 -45.097656 8.597656 -42.765625 10.265625 C -40.179688 12.117188 -37.550781 12.789062 -34.875 12.28125 C -32.195312 11.78125 -29.734375 9.953125 -27.484375 6.796875 L -14.984375 -10.703125 L -4.734375 -3.375 L -30 32.015625 L -39.796875 25.015625 L -36.84375 20.875 C -39.257812 21.394531 -41.765625 21.335938 -44.359375 20.703125 C -46.960938 20.066406 -49.472656 18.890625 -51.890625 17.171875 Z M -51.890625 17.171875 "/></g></g></g><g fill="#000000" fill-opacity="1"><g transform="translate(247.253173, 605.776856)"><g><path d="M -25.3125 -22.59375 C -23.789062 -22.34375 -22.234375 -21.738281 -20.640625 -20.78125 C -19.054688 -19.820312 -17.5625 -18.632812 -16.15625 -17.21875 C -12.519531 -13.539062 -10.640625 -9.769531 -10.515625 -5.90625 C -10.390625 -2.050781 -12.148438 1.675781 -15.796875 5.28125 L -28.484375 17.859375 L -23.765625 22.640625 L -30.640625 29.453125 L -35.359375 24.671875 L -42.890625 32.125 L -51.765625 23.1875 L -44.234375 15.734375 L -51.859375 8.03125 L -44.984375 1.21875 L -37.359375 8.921875 L -24.78125 -3.53125 C -23.476562 -4.820312 -22.804688 -6.15625 -22.765625 -7.53125 C -22.722656 -8.914062 -23.304688 -10.21875 -24.515625 -11.4375 C -25.910156 -12.84375 -27.484375 -13.664062 -29.234375 -13.90625 Z M -25.3125 -22.59375 "/></g></g></g><g fill="#000000" fill-opacity="1"><g transform="translate(224.761808, 582.829603)"><g/></g></g><g fill="#000000" fill-opacity="1"><g transform="translate(211.830955, 568.84638)"><g><path d="M -34.515625 -38.328125 L -25.453125 -43.625 L -3.375 -5.796875 L -52.234375 22.703125 L -73.78125 -14.21875 L -64.703125 -19.5 L -49.71875 6.1875 L -39.109375 0 L -52.34375 -22.6875 L -43.546875 -27.828125 L -30.3125 -5.140625 L -19 -11.734375 Z M -34.515625 -38.328125 "/></g></g></g><g fill="#000000" fill-opacity="1"><g transform="translate(186.720801, 527.106818)"><g><path d="M -52.0625 -16.609375 C -53.769531 -21.710938 -53.613281 -26.347656 -51.59375 -30.515625 C -49.582031 -34.679688 -45.566406 -37.769531 -39.546875 -39.78125 L -15.9375 -47.671875 L -11.9375 -35.71875 L -33.703125 -28.4375 C -36.972656 -27.351562 -39.171875 -25.828125 -40.296875 -23.859375 C -41.429688 -21.890625 -41.546875 -19.546875 -40.640625 -16.828125 C -39.628906 -13.816406 -37.894531 -11.726562 -35.4375 -10.5625 C -32.976562 -9.394531 -29.910156 -9.425781 -26.234375 -10.65625 L -5.84375 -17.46875 L -1.84375 -5.515625 L -43.09375 8.265625 L -46.90625 -3.15625 L -42.0625 -4.765625 C -44.332031 -5.765625 -46.332031 -7.28125 -48.0625 -9.3125 C -49.789062 -11.351562 -51.125 -13.785156 -52.0625 -16.609375 Z M -52.0625 -16.609375 "/></g></g></g><g fill="#000000" fill-opacity="1"><g transform="translate(170.237191, 479.648218)"><g><path d="M -65.265625 -42.984375 L -5.6875 -49.78125 L -4.3125 -37.8125 L -9.296875 -37.25 C -5.191406 -34.570312 -2.804688 -30.289062 -2.140625 -24.40625 C -1.671875 -20.332031 -2.15625 -16.546875 -3.59375 -13.046875 C -5.039062 -9.554688 -7.34375 -6.679688 -10.5 -4.421875 C -13.664062 -2.160156 -17.46875 -0.773438 -21.90625 -0.265625 C -26.351562 0.242188 -30.367188 -0.242188 -33.953125 -1.734375 C -37.535156 -3.234375 -40.425781 -5.519531 -42.625 -8.59375 C -44.820312 -11.675781 -46.15625 -15.253906 -46.625 -19.328125 C -47.25 -24.835938 -46 -29.347656 -42.875 -32.859375 L -63.828125 -30.46875 Z M -12.671875 -25.40625 C -13.023438 -28.5625 -14.40625 -31.054688 -16.8125 -32.890625 C -19.21875 -34.722656 -22.238281 -35.429688 -25.875 -35.015625 C -29.519531 -34.597656 -32.304688 -33.222656 -34.234375 -30.890625 C -36.160156 -28.566406 -36.945312 -25.828125 -36.59375 -22.671875 C -36.21875 -19.453125 -34.828125 -16.921875 -32.421875 -15.078125 C -30.023438 -13.242188 -27.003906 -12.535156 -23.359375 -12.953125 C -19.722656 -13.367188 -16.9375 -14.742188 -15 -17.078125 C -13.070312 -19.410156 -12.296875 -22.1875 -12.671875 -25.40625 Z M -12.671875 -25.40625 "/></g></g></g><g fill="#000000" fill-opacity="1"><g transform="translate(165.267254, 428.08058)"><g/></g></g><g fill="#000000" fill-opacity="1"><g transform="translate(163.67816, 409.56019)"><g><path d="M -54.078125 -17.859375 L -48.953125 -43.046875 C -47.722656 -49.066406 -45.488281 -54.148438 -42.25 -58.296875 C -39.007812 -62.453125 -35.046875 -65.382812 -30.359375 -67.09375 C -25.671875 -68.800781 -20.554688 -69.085938 -15.015625 -67.953125 C -9.460938 -66.828125 -4.863281 -64.5625 -1.21875 -61.15625 C 2.425781 -57.75 4.925781 -53.5 6.28125 -48.40625 C 7.632812 -43.320312 7.695312 -37.769531 6.46875 -31.75 L 1.34375 -6.5625 Z M -4.1875 -33.265625 C -3.0625 -38.804688 -3.707031 -43.539062 -6.125 -47.46875 C -8.539062 -51.394531 -12.390625 -53.894531 -17.671875 -54.96875 C -22.941406 -56.050781 -27.457031 -55.257812 -31.21875 -52.59375 C -34.988281 -49.925781 -37.4375 -45.820312 -38.5625 -40.28125 L -40.953125 -28.546875 L -6.578125 -21.53125 Z M -4.1875 -33.265625 "/></g></g></g><g fill="#000000" fill-opacity="1"><g transform="translate(176.018906, 350.045055)"><g><path d="M 0.09375 -52.984375 C 0.238281 -52.921875 1.238281 -52.394531 3.09375 -51.40625 L -10.34375 -21.390625 C -7.644531 -20.816406 -5.128906 -21.21875 -2.796875 -22.59375 C -0.472656 -23.976562 1.359375 -26.164062 2.703125 -29.15625 C 3.628906 -31.21875 4.140625 -33.1875 4.234375 -35.0625 C 4.335938 -36.9375 4.03125 -38.859375 3.3125 -40.828125 L 12.703125 -43.984375 C 15.296875 -38.328125 14.984375 -31.910156 11.765625 -24.734375 C 9.765625 -20.265625 7.117188 -16.695312 3.828125 -14.03125 C 0.546875 -11.375 -3.054688 -9.804688 -6.984375 -9.328125 C -10.921875 -8.859375 -14.851562 -9.503906 -18.78125 -11.265625 C -22.664062 -13.003906 -25.753906 -15.488281 -28.046875 -18.71875 C -30.347656 -21.957031 -31.648438 -25.578125 -31.953125 -29.578125 C -32.253906 -33.578125 -31.515625 -37.570312 -29.734375 -41.5625 C -27.992188 -45.4375 -25.582031 -48.570312 -22.5 -50.96875 C -19.414062 -53.363281 -15.910156 -54.757812 -11.984375 -55.15625 C -8.054688 -55.5625 -4.03125 -54.835938 0.09375 -52.984375 Z M -21.015625 -37.734375 C -22.179688 -35.128906 -22.421875 -32.613281 -21.734375 -30.1875 C -21.046875 -27.757812 -19.507812 -25.773438 -17.125 -24.234375 L -8.359375 -43.78125 C -11.054688 -44.5 -13.550781 -44.3125 -15.84375 -43.21875 C -18.144531 -42.125 -19.867188 -40.296875 -21.015625 -37.734375 Z M -21.015625 -37.734375 "/></g></g></g><g fill="#000000" fill-opacity="1"><g transform="translate(194.485059, 307.960374)"><g><path d="M -7.796875 -65.03125 L 17.453125 -25.15625 L 10.046875 -14.46875 L -36.078125 -24.265625 L -28.671875 -34.953125 L 2.484375 -27.96875 L -14.71875 -55.0625 Z M -7.796875 -65.03125 "/></g></g></g><g fill="#000000" fill-opacity="1"><g transform="translate(218.691969, 272.042001)"><g><path d="M 19.296875 -49.359375 C 19.410156 -49.242188 20.15625 -48.382812 21.53125 -46.78125 L -1.890625 -23.6875 C 0.410156 -22.164062 2.898438 -21.628906 5.578125 -22.078125 C 8.253906 -22.523438 10.757812 -23.898438 13.09375 -26.203125 C 14.695312 -27.785156 15.890625 -29.429688 16.671875 -31.140625 C 17.453125 -32.847656 17.863281 -34.75 17.90625 -36.84375 L 27.78125 -36.375 C 28.15625 -30.164062 25.546875 -24.300781 19.953125 -18.78125 C 16.460938 -15.34375 12.703125 -12.976562 8.671875 -11.6875 C 4.648438 -10.40625 0.71875 -10.253906 -3.125 -11.234375 C -6.96875 -12.210938 -10.398438 -14.234375 -13.421875 -17.296875 C -16.410156 -20.328125 -18.382812 -23.765625 -19.34375 -27.609375 C -20.3125 -31.460938 -20.210938 -35.304688 -19.046875 -39.140625 C -17.878906 -42.984375 -15.738281 -46.441406 -12.625 -49.515625 C -9.601562 -52.492188 -6.222656 -54.539062 -2.484375 -55.65625 C 1.253906 -56.78125 5.023438 -56.816406 8.828125 -55.765625 C 12.628906 -54.710938 16.117188 -52.578125 19.296875 -49.359375 Z M -5.890625 -42.78125 C -7.921875 -40.78125 -9.054688 -38.523438 -9.296875 -36.015625 C -9.535156 -33.503906 -8.828125 -31.09375 -7.171875 -28.78125 L 8.078125 -43.828125 C 5.835938 -45.472656 3.445312 -46.203125 0.90625 -46.015625 C -1.625 -45.828125 -3.890625 -44.75 -5.890625 -42.78125 Z M -5.890625 -42.78125 "/></g></g></g><g fill="#000000" fill-opacity="1"><g transform="translate(252.659136, 239.463402)"><g><path d="M -31.03125 -51.640625 L -20.90625 -59.140625 L 14.796875 -10.96875 L 4.671875 -3.46875 Z M -31.03125 -51.640625 "/></g></g></g><g fill="#000000" fill-opacity="1"><g transform="translate(268.294006, 226.236627)"><g><path d="M 23.640625 -11.984375 C 19.609375 -9.816406 15.539062 -8.710938 11.4375 -8.671875 C 7.332031 -8.640625 3.570312 -9.632812 0.15625 -11.65625 C -3.25 -13.675781 -5.972656 -16.582031 -8.015625 -20.375 C -10.054688 -24.175781 -10.976562 -28.054688 -10.78125 -32.015625 C -10.59375 -35.972656 -9.347656 -39.648438 -7.046875 -43.046875 C -4.753906 -46.453125 -1.59375 -49.238281 2.4375 -51.40625 C 6.46875 -53.582031 10.523438 -54.679688 14.609375 -54.703125 C 18.691406 -54.734375 22.441406 -53.738281 25.859375 -51.71875 C 29.273438 -49.695312 32.003906 -46.785156 34.046875 -42.984375 C 36.085938 -39.191406 37.007812 -35.316406 36.8125 -31.359375 C 36.613281 -27.398438 35.375 -23.722656 33.09375 -20.328125 C 30.820312 -16.941406 27.671875 -14.160156 23.640625 -11.984375 Z M 18.75 -21.09375 C 21.601562 -22.632812 23.421875 -24.851562 24.203125 -27.75 C 24.992188 -30.65625 24.523438 -33.71875 22.796875 -36.9375 C 21.054688 -40.164062 18.757812 -42.25 15.90625 -43.1875 C 13.050781 -44.132812 10.195312 -43.835938 7.34375 -42.296875 C 4.5 -40.773438 2.664062 -38.554688 1.84375 -35.640625 C 1.03125 -32.722656 1.492188 -29.648438 3.234375 -26.421875 C 4.960938 -23.203125 7.269531 -21.128906 10.15625 -20.203125 C 13.039062 -19.273438 15.90625 -19.570312 18.75 -21.09375 Z M 18.75 -21.09375 "/></g></g></g><g fill="#000000" fill-opacity="1"><g transform="translate(309.780471, 203.129088)"><g><path d="M 17.5625 -51.296875 C 21.425781 -52.460938 25.210938 -52.628906 28.921875 -51.796875 C 32.640625 -50.960938 35.882812 -49.203125 38.65625 -46.515625 C 41.425781 -43.828125 43.453125 -40.335938 44.734375 -36.046875 C 46.015625 -31.765625 46.234375 -27.738281 45.390625 -23.96875 C 44.546875 -20.207031 42.800781 -16.960938 40.15625 -14.234375 C 37.507812 -11.515625 34.253906 -9.570312 30.390625 -8.40625 C 25.066406 -6.820312 20.382812 -7.253906 16.34375 -9.703125 L 22.140625 9.734375 L 10.046875 13.34375 L -6.890625 -43.328125 L 4.65625 -46.765625 L 6.09375 -41.96875 C 8.007812 -46.476562 11.832031 -49.585938 17.5625 -51.296875 Z M 25.3125 -17.6875 C 28.414062 -18.613281 30.648438 -20.414062 32.015625 -23.09375 C 33.378906 -25.78125 33.539062 -28.878906 32.5 -32.390625 C 31.445312 -35.898438 29.613281 -38.398438 27 -39.890625 C 24.382812 -41.390625 21.523438 -41.675781 18.421875 -40.75 C 15.328125 -39.832031 13.097656 -38.03125 11.734375 -35.34375 C 10.378906 -32.664062 10.226562 -29.570312 11.28125 -26.0625 C 12.320312 -22.550781 14.144531 -20.046875 16.75 -18.546875 C 19.363281 -17.054688 22.21875 -16.769531 25.3125 -17.6875 Z M 25.3125 -17.6875 "/></g></g></g><g fill="#000000" fill-opacity="1"><g transform="translate(357.948392, 188.419334)"><g><path d="M 46.25 -25.875 C 46.257812 -25.707031 46.28125 -24.578125 46.3125 -22.484375 L 13.5625 -19.5 C 14.394531 -16.863281 15.984375 -14.863281 18.328125 -13.5 C 20.671875 -12.144531 23.476562 -11.617188 26.75 -11.921875 C 29 -12.128906 30.960938 -12.644531 32.640625 -13.46875 C 34.316406 -14.300781 35.847656 -15.507812 37.234375 -17.09375 L 44.5625 -10.46875 C 40.914062 -5.4375 35.175781 -2.5625 27.34375 -1.84375 C 22.46875 -1.394531 18.0625 -1.953125 14.125 -3.515625 C 10.195312 -5.085938 7.054688 -7.46875 4.703125 -10.65625 C 2.359375 -13.851562 0.992188 -17.59375 0.609375 -21.875 C 0.222656 -26.125 0.878906 -30.039062 2.578125 -33.625 C 4.273438 -37.21875 6.796875 -40.125 10.140625 -42.34375 C 13.484375 -44.570312 17.328125 -45.882812 21.671875 -46.28125 C 25.898438 -46.664062 29.816406 -46.101562 33.421875 -44.59375 C 37.023438 -43.082031 39.957031 -40.707031 42.21875 -37.46875 C 44.488281 -34.238281 45.832031 -30.375 46.25 -25.875 Z M 22.609375 -36.796875 C 19.765625 -36.535156 17.453125 -35.507812 15.671875 -33.71875 C 13.890625 -31.9375 12.910156 -29.628906 12.734375 -26.796875 L 34.0625 -28.734375 C 33.382812 -31.429688 32.003906 -33.515625 29.921875 -34.984375 C 27.835938 -36.453125 25.398438 -37.054688 22.609375 -36.796875 Z M 22.609375 -36.796875 "/></g></g></g><g fill="#000000" fill-opacity="1"><g transform="translate(404.342886, 184.483923)"><g><path d="M 20.4375 -36.40625 C 22.09375 -38.40625 24.234375 -39.851562 26.859375 -40.75 C 29.484375 -41.644531 32.460938 -41.972656 35.796875 -41.734375 L 34.984375 -30.125 C 33.585938 -30.332031 32.648438 -30.453125 32.171875 -30.484375 C 28.566406 -30.734375 25.671875 -29.921875 23.484375 -28.046875 C 21.304688 -26.179688 20.078125 -23.234375 19.796875 -19.203125 L 18.375 1.28125 L 5.796875 0.40625 L 8.8125 -42.96875 L 20.828125 -42.140625 Z M 20.4375 -36.40625 "/></g></g></g><g fill="#000000" fill-opacity="1"><g transform="translate(436.08185, 186.853046)"><g/></g></g><g fill="#000000" fill-opacity="1"><g transform="translate(456.348299, 190.423733)"><g><path d="M 10.0625 3.34375 C 7.914062 2.769531 6.3125 1.5625 5.25 -0.28125 C 4.1875 -2.125 3.941406 -4.132812 4.515625 -6.3125 C 5.117188 -8.5625 6.328125 -10.179688 8.140625 -11.171875 C 9.960938 -12.171875 11.945312 -12.382812 14.09375 -11.8125 C 16.226562 -11.25 17.835938 -10.082031 18.921875 -8.3125 C 20.015625 -6.539062 20.257812 -4.53125 19.65625 -2.28125 C 19.082031 -0.101562 17.875 1.515625 16.03125 2.578125 C 14.1875 3.648438 12.195312 3.90625 10.0625 3.34375 Z M 10.0625 3.34375 "/></g></g></g><g fill="#000000" fill-opacity="1"><g transform="translate(474.633261, 195.145502)"><g/></g></g><g fill="#000000" fill-opacity="1"><g transform="translate(492.816043, 199.490154)"><g><path d="M 27.421875 16.203125 C 20.335938 12.304688 15.90625 7.316406 14.125 1.234375 C 12.34375 -4.847656 13.457031 -11.523438 17.46875 -18.796875 L 32.75 -46.546875 L 44.21875 -40.234375 L 29.171875 -12.90625 C 24.285156 -4.039062 25.519531 2.421875 32.875 6.484375 C 36.46875 8.460938 39.796875 8.894531 42.859375 7.78125 C 45.921875 6.675781 48.71875 3.835938 51.25 -0.734375 L 66.296875 -28.0625 L 77.609375 -21.828125 L 62.328125 5.921875 C 58.316406 13.191406 53.265625 17.695312 47.171875 19.4375 C 41.085938 21.1875 34.503906 20.109375 27.421875 16.203125 Z M 27.421875 16.203125 "/></g></g></g><g fill="#000000" fill-opacity="1"><g transform="translate(543.43616, 226.981527)"><g><path d="M 31.546875 28.25 L 34.484375 4.515625 L 11.390625 10.1875 L 0.1875 0.171875 L 34.953125 -7.296875 L 38.703125 -41.265625 L 49.765625 -31.34375 L 47.234375 -9 L 68.96875 -14.140625 L 79.5 -4.71875 L 46.59375 2.484375 L 42.796875 38.328125 Z M 31.546875 28.25 "/></g></g></g><g fill="#000000" fill-opacity="1"><g transform="translate(582.492432, 262.89916)"><g><path d="M 68.15625 -23.671875 L 75.15625 -14.890625 L -0.96875 11.71875 L -7.984375 2.9375 Z M 68.15625 -23.671875 "/></g></g></g><g fill="#000000" fill-opacity="1"><g transform="translate(600.757095, 282.824158)"><g><path d="M 14.265625 28.46875 C 10.429688 21.351562 9.410156 14.753906 11.203125 8.671875 C 12.992188 2.597656 17.546875 -2.410156 24.859375 -6.359375 L 52.71875 -21.40625 L 58.9375 -9.875 L 31.5 4.9375 C 22.59375 9.75 20.140625 15.851562 24.140625 23.25 C 26.085938 26.84375 28.644531 29.007812 31.8125 29.75 C 34.988281 30.488281 38.878906 29.613281 43.484375 27.125 L 70.921875 12.3125 L 77.0625 23.671875 L 49.203125 38.71875 C 41.890625 42.664062 35.195312 43.722656 29.125 41.890625 C 23.0625 40.054688 18.109375 35.582031 14.265625 28.46875 Z M 14.265625 28.46875 "/></g></g></g><g fill="#000000" fill-opacity="1"><g transform="translate(627.74063, 335.260115)"><g><path d="M 55.734375 -11.8125 L 59.9375 0.59375 L 6.359375 18.75 L 2.15625 6.34375 Z M 55.734375 -11.8125 "/></g></g></g><g fill="#000000" fill-opacity="1"><g transform="translate(635.456796, 357.92085)"><g/></g></g><g fill="#000000" fill-opacity="1"><g transform="translate(641.898294, 375.358787)"><g><path d="M 56.890625 2.90625 L 58.609375 28.546875 C 59.015625 34.679688 58.207031 40.175781 56.1875 45.03125 C 54.164062 49.894531 51.117188 53.769531 47.046875 56.65625 C 42.972656 59.550781 38.113281 61.1875 32.46875 61.5625 C 26.820312 61.9375 21.789062 60.960938 17.375 58.640625 C 12.957031 56.328125 9.421875 52.894531 6.765625 48.34375 C 4.109375 43.800781 2.578125 38.460938 2.171875 32.328125 L 0.453125 6.6875 Z M 12.84375 30.96875 C 13.21875 36.613281 15.085938 41.007812 18.453125 44.15625 C 21.828125 47.3125 26.203125 48.707031 31.578125 48.34375 C 36.953125 47.976562 41.097656 46.007812 44.015625 42.4375 C 46.941406 38.875 48.21875 34.269531 47.84375 28.625 L 47.046875 16.6875 L 12.046875 19.03125 Z M 12.84375 30.96875 "/></g></g></g><g fill="#000000" fill-opacity="1"><g transform="translate(645.752763, 436.017805)"><g><path d="M 13.953125 51.140625 C 13.785156 51.109375 12.675781 50.851562 10.625 50.375 L 15.640625 17.875 C 12.878906 18.039062 10.5625 19.097656 8.6875 21.046875 C 6.8125 22.992188 5.625 25.585938 5.125 28.828125 C 4.769531 31.066406 4.789062 33.101562 5.1875 34.9375 C 5.582031 36.769531 6.390625 38.539062 7.609375 40.25 L -0.59375 45.765625 C -4.601562 41.015625 -6.007812 34.75 -4.8125 26.96875 C -4.070312 22.132812 -2.46875 18 0 14.5625 C 2.46875 11.125 5.535156 8.648438 9.203125 7.140625 C 12.878906 5.640625 16.84375 5.21875 21.09375 5.875 C 25.300781 6.519531 28.941406 8.101562 32.015625 10.625 C 35.085938 13.144531 37.296875 16.296875 38.640625 20.078125 C 39.992188 23.859375 40.335938 27.90625 39.671875 32.21875 C 39.023438 36.414062 37.53125 40.078125 35.1875 43.203125 C 32.851562 46.328125 29.847656 48.601562 26.171875 50.03125 C 22.492188 51.457031 18.421875 51.828125 13.953125 51.140625 Z M 30.25 30.84375 C 30.675781 28.019531 30.238281 25.523438 28.9375 23.359375 C 27.632812 21.191406 25.632812 19.679688 22.9375 18.828125 L 19.671875 40 C 22.453125 39.976562 24.800781 39.132812 26.71875 37.46875 C 28.644531 35.8125 29.820312 33.601562 30.25 30.84375 Z M 30.25 30.84375 "/></g></g></g><g fill="#000000" fill-opacity="1"><g transform="translate(638.773054, 481.6825)"><g><path d="M -7.203125 19.15625 C -6.035156 15.738281 -4.476562 12.539062 -2.53125 9.5625 C -0.582031 6.582031 1.363281 4.335938 3.3125 2.828125 L 10.515625 9.71875 C 8.722656 11.164062 7.015625 13.0625 5.390625 15.40625 C 3.765625 17.757812 2.523438 20.1875 1.671875 22.6875 C -0.0546875 27.738281 0.320312 30.6875 2.8125 31.53125 C 3.988281 31.9375 5.066406 31.535156 6.046875 30.328125 C 7.035156 29.117188 8.191406 27.148438 9.515625 24.421875 C 11.171875 21.234375 12.703125 18.65625 14.109375 16.6875 C 15.523438 14.71875 17.347656 13.21875 19.578125 12.1875 C 21.804688 11.15625 24.476562 11.171875 27.59375 12.234375 C 30.195312 13.117188 32.242188 14.65625 33.734375 16.84375 C 35.234375 19.039062 36.054688 21.765625 36.203125 25.015625 C 36.347656 28.273438 35.75 31.875 34.40625 35.8125 C 33.414062 38.707031 32.113281 41.488281 30.5 44.15625 C 28.882812 46.832031 27.191406 48.921875 25.421875 50.421875 L 18.296875 43.546875 C 21.566406 40.617188 23.929688 37.015625 25.390625 32.734375 C 26.265625 30.179688 26.554688 28.144531 26.265625 26.625 C 25.984375 25.113281 25.28125 24.164062 24.15625 23.78125 C 22.882812 23.34375 21.757812 23.726562 20.78125 24.9375 C 19.800781 26.144531 18.570312 28.171875 17.09375 31.015625 C 15.382812 34.179688 13.84375 36.726562 12.46875 38.65625 C 11.101562 40.59375 9.3125 42.0625 7.09375 43.0625 C 4.875 44.0625 2.257812 44.050781 -0.75 43.03125 C -3.300781 42.15625 -5.3125 40.613281 -6.78125 38.40625 C -8.25 36.195312 -9.03125 33.441406 -9.125 30.140625 C -9.21875 26.835938 -8.578125 23.175781 -7.203125 19.15625 Z M -7.203125 19.15625 "/></g></g></g><g fill="#000000" fill-opacity="1"><g transform="translate(625.713022, 518.866042)"><g><path d="M 36.53125 24.296875 L 31 35.625 L -8.078125 16.546875 L -2.546875 5.21875 Z M 39.203125 32.609375 C 40.210938 30.535156 41.640625 29.140625 43.484375 28.421875 C 45.335938 27.703125 47.160156 27.78125 48.953125 28.65625 C 50.753906 29.53125 51.9375 30.914062 52.5 32.8125 C 53.0625 34.71875 52.835938 36.707031 51.828125 38.78125 C 50.804688 40.875 49.398438 42.289062 47.609375 43.03125 C 45.816406 43.769531 44.046875 43.710938 42.296875 42.859375 C 40.410156 41.941406 39.164062 40.523438 38.5625 38.609375 C 37.96875 36.703125 38.179688 34.703125 39.203125 32.609375 Z M 39.203125 32.609375 "/></g></g></g><g fill="#000000" fill-opacity="1"><g transform="translate(618.194885, 537.754186)"><g><path d="M 6.921875 66.421875 L -22.859375 45.8125 C -29.410156 41.269531 -33.097656 36.1875 -33.921875 30.5625 C -34.753906 24.9375 -32.90625 18.847656 -28.375 12.296875 C -25.976562 8.835938 -23.285156 5.847656 -20.296875 3.328125 C -17.304688 0.816406 -14.304688 -0.90625 -11.296875 -1.84375 L -6.71875 7.4375 C -9 8.082031 -11.300781 9.304688 -13.625 11.109375 C -15.945312 12.910156 -17.90625 14.960938 -19.5 17.265625 C -21.988281 20.859375 -23.015625 24.0625 -22.578125 26.875 C -22.140625 29.695312 -20.28125 32.242188 -17 34.515625 L -15.46875 35.578125 C -16.582031 30.816406 -15.46875 26.019531 -12.125 21.1875 C -9.851562 17.90625 -7.050781 15.398438 -3.71875 13.671875 C -0.394531 11.953125 3.125 11.203125 6.84375 11.421875 C 10.5625 11.640625 14.125 12.929688 17.53125 15.296875 C 20.9375 17.648438 23.394531 20.523438 24.90625 23.921875 C 26.425781 27.328125 26.960938 30.890625 26.515625 34.609375 C 26.066406 38.328125 24.707031 41.828125 22.4375 45.109375 C 18.851562 50.296875 14.425781 53.054688 9.15625 53.390625 L 13.734375 56.578125 Z M -5.03125 29.140625 C -6.9375 31.890625 -7.6875 34.695312 -7.28125 37.5625 C -6.875 40.425781 -5.363281 42.765625 -2.75 44.578125 C -0.132812 46.378906 2.582031 46.96875 5.40625 46.34375 C 8.238281 45.71875 10.609375 44.03125 12.515625 41.28125 C 14.421875 38.53125 15.175781 35.707031 14.78125 32.8125 C 14.382812 29.925781 12.878906 27.582031 10.265625 25.78125 C 7.648438 23.96875 4.921875 23.382812 2.078125 24.03125 C -0.753906 24.6875 -3.125 26.390625 -5.03125 29.140625 Z M -5.03125 29.140625 "/></g></g></g><g fill="#000000" fill-opacity="1"><g transform="translate(589.672279, 579.951377)"><g><path d="M 6.765625 54.234375 C 2.847656 57.921875 -1.421875 59.722656 -6.046875 59.640625 C -10.679688 59.566406 -15.175781 57.21875 -19.53125 52.59375 L -36.59375 34.46875 L -27.40625 25.8125 L -11.671875 42.515625 C -9.304688 45.023438 -6.992188 46.382812 -4.734375 46.59375 C -2.472656 46.800781 -0.300781 45.925781 1.78125 43.96875 C 4.09375 41.78125 5.257812 39.320312 5.28125 36.59375 C 5.300781 33.875 3.984375 31.101562 1.328125 28.28125 L -13.40625 12.625 L -4.234375 3.984375 L 25.578125 35.640625 L 16.8125 43.90625 L 13.3125 40.203125 C 13.351562 42.671875 12.8125 45.117188 11.6875 47.546875 C 10.570312 49.972656 8.929688 52.203125 6.765625 54.234375 Z M 6.765625 54.234375 "/></g></g></g><g fill="#000000" fill-opacity="1"><g transform="translate(553.155274, 614.750832)"><g><path d="M -29.734375 43.875 C -29.828125 43.738281 -30.359375 42.738281 -31.328125 40.875 L -3.390625 23.515625 C -5.304688 21.535156 -7.613281 20.460938 -10.3125 20.296875 C -13.019531 20.140625 -15.769531 20.925781 -18.5625 22.65625 C -20.476562 23.84375 -22.003906 25.1875 -23.140625 26.6875 C -24.273438 28.1875 -25.097656 29.945312 -25.609375 31.96875 L -35.125 29.34375 C -34.125 23.195312 -30.285156 18.050781 -23.609375 13.90625 C -19.453125 11.320312 -15.265625 9.847656 -11.046875 9.484375 C -6.835938 9.117188 -2.96875 9.835938 0.5625 11.640625 C 4.09375 13.453125 6.992188 16.1875 9.265625 19.84375 C 11.515625 23.457031 12.679688 27.25 12.765625 31.21875 C 12.859375 35.1875 11.910156 38.910156 9.921875 42.390625 C 7.929688 45.878906 5.082031 48.78125 1.375 51.09375 C -2.226562 53.332031 -5.976562 54.582031 -9.875 54.84375 C -13.78125 55.101562 -17.46875 54.300781 -20.9375 52.4375 C -24.414062 50.570312 -27.347656 47.71875 -29.734375 43.875 Z M -3.71875 43.03125 C -1.289062 41.53125 0.316406 39.578125 1.109375 37.171875 C 1.898438 34.773438 1.742188 32.269531 0.640625 29.65625 L -17.5625 40.96875 C -15.738281 43.0625 -13.566406 44.296875 -11.046875 44.671875 C -8.535156 45.054688 -6.09375 44.507812 -3.71875 43.03125 Z M -3.71875 43.03125 "/></g></g></g><g fill="#000000" fill-opacity="1"><g transform="translate(513.450925, 639.067381)"><g><path d="M -1.953125 41.703125 C -2.535156 44.222656 -3.796875 46.472656 -5.734375 48.453125 C -7.679688 50.429688 -10.195312 52.066406 -13.28125 53.359375 L -17.765625 42.625 C -16.421875 42.175781 -15.53125 41.859375 -15.09375 41.671875 C -11.757812 40.285156 -9.535156 38.265625 -8.421875 35.609375 C -7.304688 32.960938 -7.53125 29.773438 -9.09375 26.046875 L -17 7.09375 L -5.359375 2.234375 L 11.390625 42.359375 L 0.265625 47 Z M -1.953125 41.703125 "/></g></g></g><g fill="#000000" fill-opacity="1"><g transform="translate(484.013772, 651.17983)"><g/></g></g><g fill="#000000" fill-opacity="1"><g transform="translate(464.295202, 657.074289)"><g><path d="M -10.5 1.53125 C -8.320312 1.082031 -6.34375 1.441406 -4.5625 2.609375 C -2.78125 3.773438 -1.660156 5.460938 -1.203125 7.671875 C -0.734375 9.953125 -1.085938 11.941406 -2.265625 13.640625 C -3.453125 15.347656 -5.132812 16.425781 -7.3125 16.875 C -9.46875 17.320312 -11.425781 17 -13.1875 15.90625 C -14.957031 14.820312 -16.078125 13.140625 -16.546875 10.859375 C -17.003906 8.648438 -16.648438 6.65625 -15.484375 4.875 C -14.316406 3.09375 -12.65625 1.976562 -10.5 1.53125 Z M -10.5 1.53125 "/></g></g></g><g fill="#000000" fill-opacity="1"><g transform="translate(445.835902, 661.050539)"><g/></g></g><g fill="#000000" fill-opacity="1"><g transform="translate(425.510327, 663.666062)"><g/></g></g></svg>